<svg xmlns="http://www.w3.org/2000/svg" xmlns:xlink="http://www.w3.org/1999/xlink" width="200" zoomAndPan="magnify" viewBox="0 0 150 74.999997" height="100" preserveAspectRatio="xMidYMid meet" version="1.0"><defs><clipPath id="7f60a236b6"><path d="M 43 47 L 53 47 L 53 59 L 43 59 Z M 43 47 " clip-rule="nonzero"/></clipPath><clipPath id="5d7d431d0e"><path d="M 43.390625 58.519531 C 43.253906 58.382812 43.183594 58.203125 43.183594 57.984375 L 43.183594 48.28125 C 43.183594 48.058594 43.253906 47.882812 43.390625 47.742188 C 43.53125 47.605469 43.707031 47.535156 43.917969 47.535156 C 44.023438 47.535156 44.125 47.5625 44.230469 47.613281 C 44.335938 47.664062 44.421875 47.730469 44.488281 47.808594 L 50.738281 56.117188 L 50.738281 48.277344 C 50.738281 48.058594 50.808594 47.878906 50.953125 47.742188 C 51.09375 47.601562 51.273438 47.535156 51.484375 47.535156 C 51.695312 47.535156 51.867188 47.601562 52.007812 47.742188 C 52.144531 47.878906 52.214844 48.058594 52.214844 48.277344 L 52.214844 57.980469 C 52.214844 58.199219 52.144531 58.378906 52.007812 58.519531 C 51.867188 58.660156 51.695312 58.726562 51.484375 58.726562 C 51.378906 58.726562 51.269531 58.707031 51.160156 58.664062 C 51.050781 58.621094 50.96875 58.554688 50.910156 58.46875 L 44.660156 50.15625 L 44.660156 57.984375 C 44.660156 58.195312 44.59375 58.367188 44.453125 58.515625 C 44.316406 58.65625 44.136719 58.726562 43.917969 58.726562 C 43.695312 58.726562 43.53125 58.660156 43.390625 58.519531 Z M 43.390625 58.519531 " clip-rule="nonzero"/></clipPath><linearGradient x1="159.363763" gradientTransform="matrix(0.17875, 0, 0, 0.17875, 21.540238, -13.288261)" y1="407.344268" x2="133.323053" gradientUnits="userSpaceOnUse" y2="335.806985" id="4b015b7e6f"><stop stop-opacity="1" stop-color="rgb(92.498779%, 10.998535%, 8.198547%)" offset="0"/><stop stop-opacity="1" stop-color="rgb(92.662048%, 10.998535%, 8.198547%)" offset="0.226947"/><stop stop-opacity="1" stop-color="rgb(92.826843%, 10.998535%, 8.198547%)" offset="0.5"/><stop stop-opacity="1" stop-color="rgb(92.662048%, 10.998535%, 8.198547%)" offset="0.773053"/><stop stop-opacity="1" stop-color="rgb(92.498779%, 10.998535%, 8.198547%)" offset="1"/></linearGradient><clipPath id="82f3bd7801"><path d="M 53 47 L 62 47 L 62 59 L 53 59 Z M 53 47 " clip-rule="nonzero"/></clipPath><clipPath id="69484cb0c4"><path d="M 59.917969 51.355469 C 60.515625 51.703125 60.988281 52.179688 61.335938 52.789062 C 61.6875 53.394531 61.859375 54.070312 61.859375 54.816406 L 61.859375 58.011719 C 61.859375 58.222656 61.792969 58.398438 61.652344 58.535156 C 61.515625 58.675781 61.339844 58.746094 61.128906 58.746094 C 60.917969 58.746094 60.746094 58.675781 60.605469 58.535156 C 60.464844 58.398438 60.398438 58.222656 60.398438 58.011719 L 60.398438 57.484375 C 60.0625 57.894531 59.660156 58.214844 59.179688 58.441406 C 58.703125 58.671875 58.1875 58.785156 57.632812 58.785156 C 56.945312 58.785156 56.320312 58.613281 55.761719 58.269531 C 55.203125 57.925781 54.761719 57.449219 54.441406 56.84375 C 54.121094 56.238281 53.960938 55.558594 53.960938 54.8125 C 53.960938 54.066406 54.132812 53.394531 54.476562 52.785156 C 54.820312 52.179688 55.296875 51.699219 55.90625 51.351562 C 56.511719 51.003906 57.183594 50.828125 57.917969 50.828125 C 58.652344 50.828125 59.320312 51.003906 59.917969 51.351562 Z M 58.691406 49.691406 C 58.472656 49.613281 58.238281 49.503906 57.988281 49.371094 C 57.589844 49.152344 57.273438 49.042969 57.042969 49.042969 C 56.902344 49.042969 56.777344 49.070312 56.671875 49.121094 C 56.566406 49.171875 56.460938 49.277344 56.355469 49.429688 C 56.164062 49.683594 55.953125 49.816406 55.710938 49.816406 C 55.636719 49.816406 55.539062 49.792969 55.425781 49.746094 C 55.347656 49.707031 55.285156 49.644531 55.238281 49.558594 C 55.191406 49.472656 55.167969 49.378906 55.167969 49.273438 C 55.167969 49.128906 55.210938 48.996094 55.296875 48.871094 C 55.515625 48.554688 55.785156 48.3125 56.105469 48.144531 C 56.425781 47.976562 56.773438 47.894531 57.144531 47.894531 C 57.410156 47.894531 57.648438 47.933594 57.855469 48.011719 C 58.0625 48.085938 58.292969 48.191406 58.550781 48.324219 C 58.777344 48.460938 58.949219 48.546875 59.058594 48.589844 C 59.167969 48.632812 59.285156 48.652344 59.410156 48.652344 C 59.628906 48.652344 59.820312 48.574219 59.984375 48.410156 C 60.089844 48.304688 60.179688 48.230469 60.253906 48.183594 C 60.332031 48.132812 60.417969 48.109375 60.511719 48.109375 C 60.617188 48.109375 60.722656 48.144531 60.828125 48.210938 C 60.980469 48.304688 61.054688 48.464844 61.054688 48.683594 C 61.054688 48.855469 61.003906 49.007812 60.898438 49.144531 C 60.535156 49.59375 60.054688 49.816406 59.453125 49.816406 C 59.164062 49.816406 58.910156 49.777344 58.691406 49.695312 Z M 59.214844 57.144531 C 59.601562 56.910156 59.90625 56.589844 60.125 56.183594 C 60.34375 55.777344 60.453125 55.324219 60.453125 54.816406 C 60.453125 54.308594 60.34375 53.851562 60.125 53.4375 C 59.90625 53.027344 59.601562 52.707031 59.214844 52.472656 C 58.828125 52.238281 58.398438 52.121094 57.917969 52.121094 C 57.4375 52.121094 57.007812 52.238281 56.621094 52.472656 C 56.230469 52.707031 55.925781 53.027344 55.703125 53.4375 C 55.476562 53.851562 55.367188 54.308594 55.367188 54.816406 C 55.367188 55.324219 55.480469 55.777344 55.703125 56.183594 C 55.929688 56.589844 56.234375 56.910156 56.621094 57.144531 C 57.007812 57.378906 57.4375 57.496094 57.917969 57.496094 C 58.398438 57.496094 58.828125 57.378906 59.214844 57.144531 Z M 59.214844 57.144531 " clip-rule="nonzero"/></clipPath><linearGradient x1="216.109866" gradientTransform="matrix(0.17875, 0, 0, 0.17875, 21.540238, -13.288261)" y1="406.653442" x2="191.360048" gradientUnits="userSpaceOnUse" y2="338.657461" id="8e4942b95b"><stop stop-opacity="1" stop-color="rgb(92.498779%, 10.998535%, 8.198547%)" offset="0"/><stop stop-opacity="1" stop-color="rgb(92.652893%, 10.998535%, 8.198547%)" offset="0.20888"/><stop stop-opacity="1" stop-color="rgb(92.807007%, 10.998535%, 8.198547%)" offset="0.5"/><stop stop-opacity="1" stop-color="rgb(92.652893%, 10.998535%, 8.198547%)" offset="0.79112"/><stop stop-opacity="1" stop-color="rgb(92.498779%, 10.998535%, 8.198547%)" offset="1"/></linearGradient><clipPath id="fdd73e7a48"><path d="M 63 50 L 71 50 L 71 59 L 63 59 Z M 63 50 " clip-rule="nonzero"/></clipPath><clipPath id="c862841e75"><path d="M 64.96875 58.277344 C 64.367188 57.9375 63.898438 57.464844 63.5625 56.863281 C 63.230469 56.261719 63.0625 55.578125 63.0625 54.8125 C 63.0625 54.046875 63.226562 53.351562 63.5625 52.75 C 63.898438 52.148438 64.367188 51.675781 64.96875 51.335938 C 65.570312 50.996094 66.253906 50.828125 67.019531 50.828125 C 67.785156 50.828125 68.449219 50.996094 69.046875 51.335938 C 69.644531 51.675781 70.113281 52.148438 70.453125 52.75 C 70.792969 53.351562 70.960938 54.039062 70.960938 54.8125 C 70.960938 55.585938 70.792969 56.261719 70.460938 56.863281 C 70.125 57.464844 69.660156 57.9375 69.0625 58.277344 C 68.464844 58.617188 67.785156 58.785156 67.019531 58.785156 C 66.253906 58.785156 65.570312 58.617188 64.96875 58.277344 Z M 68.328125 57.152344 C 68.71875 56.921875 69.019531 56.605469 69.234375 56.199219 C 69.445312 55.792969 69.554688 55.332031 69.554688 54.816406 C 69.554688 54.300781 69.445312 53.835938 69.234375 53.425781 C 69.019531 53.015625 68.714844 52.695312 68.328125 52.464844 C 67.945312 52.234375 67.503906 52.121094 67.019531 52.121094 C 66.53125 52.121094 66.09375 52.234375 65.707031 52.464844 C 65.316406 52.695312 65.015625 53.015625 64.796875 53.425781 C 64.574219 53.835938 64.46875 54.300781 64.46875 54.816406 C 64.46875 55.332031 64.574219 55.792969 64.796875 56.199219 C 65.015625 56.605469 65.320312 56.921875 65.707031 57.152344 C 66.09375 57.378906 66.53125 57.496094 67.019531 57.496094 C 67.503906 57.496094 67.941406 57.378906 68.328125 57.152344 Z M 68.328125 57.152344 " clip-rule="nonzero"/></clipPath><linearGradient x1="264.109052" gradientTransform="matrix(0.17875, 0, 0, 0.17875, 21.540238, -13.288261)" y1="407.716723" x2="244.628395" gradientUnits="userSpaceOnUse" y2="354.19883" id="d836839bf5"><stop stop-opacity="1" stop-color="rgb(92.498779%, 10.998535%, 8.198547%)" offset="0"/><stop stop-opacity="1" stop-color="rgb(92.662048%, 10.998535%, 8.198547%)" offset="0.265455"/><stop stop-opacity="1" stop-color="rgb(92.826843%, 10.998535%, 8.198547%)" offset="0.5"/><stop stop-opacity="1" stop-color="rgb(92.662048%, 10.998535%, 8.198547%)" offset="0.734545"/><stop stop-opacity="1" stop-color="rgb(92.498779%, 10.998535%, 8.198547%)" offset="1"/></linearGradient><clipPath id="0fd1e39354"><path d="M 39 60 L 41 60 L 41 73 L 39 73 Z M 39 60 " clip-rule="nonzero"/></clipPath><clipPath id="566c69b5ec"><path d="M 39.628906 71.917969 C 39.488281 71.773438 39.414062 71.597656 39.414062 71.386719 L 39.414062 61.683594 C 39.414062 61.464844 39.488281 61.285156 39.628906 61.144531 C 39.773438 61.007812 39.949219 60.9375 40.160156 60.9375 C 40.371094 60.9375 40.558594 61.007812 40.699219 61.144531 C 40.835938 61.285156 40.90625 61.464844 40.90625 61.683594 L 40.90625 71.386719 C 40.90625 71.597656 40.835938 71.773438 40.699219 71.917969 C 40.558594 72.058594 40.378906 72.132812 40.160156 72.132812 C 39.941406 72.132812 39.773438 72.058594 39.628906 71.917969 Z M 39.628906 71.917969 " clip-rule="nonzero"/></clipPath><linearGradient x1="104.169998" gradientTransform="matrix(0.17875, 0, 0, 0.17875, 21.540238, -13.288261)" y1="415.250036" x2="104.169998" gradientUnits="userSpaceOnUse" y2="477.870069" id="1dd14b4757"><stop stop-opacity="1" stop-color="rgb(92.498779%, 10.998535%, 8.198547%)" offset="0"/><stop stop-opacity="1" stop-color="rgb(92.662048%, 10.998535%, 8.198547%)" offset="0.5"/><stop stop-opacity="1" stop-color="rgb(92.662048%, 10.998535%, 8.198547%)" offset="1"/></linearGradient><clipPath id="dcb2d531cf"><path d="M 43 64 L 51 64 L 51 73 L 43 73 Z M 43 64 " clip-rule="nonzero"/></clipPath><clipPath id="5cfdbf9ab6"><path d="M 49.0625 64.6875 C 49.589844 64.972656 50 65.390625 50.296875 65.941406 C 50.59375 66.488281 50.742188 67.152344 50.742188 67.925781 L 50.742188 71.449219 C 50.742188 71.660156 50.671875 71.835938 50.535156 71.972656 C 50.394531 72.113281 50.21875 72.179688 50.007812 72.179688 C 49.796875 72.179688 49.625 72.113281 49.484375 71.972656 C 49.347656 71.835938 49.277344 71.660156 49.277344 71.449219 L 49.277344 67.925781 C 49.277344 67.152344 49.070312 66.566406 48.65625 66.167969 C 48.238281 65.773438 47.6875 65.574219 47 65.574219 C 46.597656 65.574219 46.234375 65.65625 45.902344 65.816406 C 45.574219 65.980469 45.316406 66.199219 45.128906 66.476562 C 44.945312 66.753906 44.851562 67.066406 44.851562 67.410156 L 44.851562 71.449219 C 44.851562 71.660156 44.785156 71.835938 44.652344 71.972656 C 44.515625 72.113281 44.339844 72.179688 44.121094 72.179688 C 43.898438 72.179688 43.734375 72.113281 43.597656 71.972656 C 43.457031 71.835938 43.390625 71.660156 43.390625 71.449219 L 43.390625 65.058594 C 43.390625 64.839844 43.457031 64.660156 43.597656 64.527344 C 43.734375 64.394531 43.910156 64.328125 44.121094 64.328125 C 44.332031 64.328125 44.515625 64.394531 44.652344 64.527344 C 44.785156 64.660156 44.851562 64.839844 44.851562 65.058594 L 44.851562 65.214844 C 45.15625 64.910156 45.519531 64.671875 45.941406 64.503906 C 46.359375 64.335938 46.808594 64.253906 47.289062 64.253906 C 47.945312 64.253906 48.539062 64.398438 49.0625 64.683594 Z M 49.0625 64.6875 " clip-rule="nonzero"/></clipPath><linearGradient x1="142.789993" gradientTransform="matrix(0.17875, 0, 0, 0.17875, 21.540238, -13.288261)" y1="433.810037" x2="142.789993" gradientUnits="userSpaceOnUse" y2="478.150029" id="141bffce1d"><stop stop-opacity="1" stop-color="rgb(92.498779%, 10.998535%, 8.198547%)" offset="0"/><stop stop-opacity="1" stop-color="rgb(92.662048%, 10.998535%, 8.198547%)" offset="0.5"/><stop stop-opacity="1" stop-color="rgb(92.662048%, 10.998535%, 8.198547%)" offset="1"/></linearGradient><clipPath id="8c01c9edba"><path d="M 51 64 L 60 64 L 60 73 L 51 73 Z M 51 64 " clip-rule="nonzero"/></clipPath><clipPath id="d270fa8052"><path d="M 59.007812 64.628906 C 59.074219 64.730469 59.105469 64.839844 59.105469 64.964844 C 59.105469 65.050781 59.082031 65.140625 59.035156 65.238281 L 55.996094 71.644531 C 55.851562 71.957031 55.632812 72.117188 55.335938 72.117188 C 55.175781 72.117188 55.039062 72.082031 54.9375 72.007812 C 54.832031 71.9375 54.734375 71.816406 54.648438 71.644531 L 51.613281 65.238281 C 51.574219 65.160156 51.554688 65.074219 51.554688 64.980469 C 51.554688 64.722656 51.6875 64.527344 51.953125 64.394531 C 52.039062 64.34375 52.140625 64.320312 52.253906 64.320312 C 52.371094 64.320312 52.480469 64.351562 52.582031 64.414062 C 52.6875 64.476562 52.769531 64.566406 52.828125 64.679688 L 55.320312 70.054688 L 57.785156 64.679688 C 57.84375 64.566406 57.925781 64.476562 58.035156 64.414062 C 58.144531 64.351562 58.261719 64.320312 58.386719 64.320312 C 58.507812 64.320312 58.621094 64.34375 58.714844 64.394531 C 58.839844 64.449219 58.933594 64.527344 59 64.628906 Z M 59.007812 64.628906 " clip-rule="nonzero"/></clipPath><linearGradient x1="189.03999" gradientTransform="matrix(0.17875, 0, 0, 0.17875, 21.540238, -13.288261)" y1="434.179997" x2="189.03999" gradientUnits="userSpaceOnUse" y2="477.790019" id="d0f374042b"><stop stop-opacity="1" stop-color="rgb(92.498779%, 10.998535%, 8.198547%)" offset="0"/><stop stop-opacity="1" stop-color="rgb(92.662048%, 10.998535%, 8.198547%)" offset="0.5"/><stop stop-opacity="1" stop-color="rgb(92.662048%, 10.998535%, 8.198547%)" offset="1"/></linearGradient><clipPath id="e8e633e8ff"><path d="M 60 61 L 63 61 L 63 73 L 60 73 Z M 60 61 " clip-rule="nonzero"/></clipPath><clipPath id="85b11fdca4"><path d="M 60.605469 62.738281 C 60.417969 62.550781 60.324219 62.332031 60.324219 62.070312 C 60.324219 61.8125 60.417969 61.589844 60.605469 61.402344 C 60.789062 61.21875 61.011719 61.125 61.269531 61.125 C 61.527344 61.125 61.75 61.21875 61.9375 61.402344 C 62.125 61.589844 62.214844 61.8125 62.214844 62.070312 C 62.214844 62.332031 62.125 62.550781 61.9375 62.738281 C 61.75 62.921875 61.527344 63.015625 61.269531 63.015625 C 61.011719 63.015625 60.789062 62.921875 60.605469 62.738281 Z M 60.746094 71.921875 C 60.609375 71.785156 60.539062 71.609375 60.539062 71.398438 L 60.539062 65.023438 C 60.539062 64.800781 60.609375 64.625 60.746094 64.492188 C 60.886719 64.355469 61.058594 64.292969 61.269531 64.292969 C 61.480469 64.292969 61.667969 64.355469 61.800781 64.492188 C 61.9375 64.625 62.003906 64.800781 62.003906 65.023438 L 62.003906 71.398438 C 62.003906 71.609375 61.933594 71.785156 61.800781 71.921875 C 61.667969 72.0625 61.492188 72.132812 61.269531 72.132812 C 61.050781 72.132812 60.886719 72.0625 60.746094 71.921875 Z M 60.746094 71.921875 " clip-rule="nonzero"/></clipPath><linearGradient x1="222.27" gradientTransform="matrix(0.17875, 0, 0, 0.17875, 21.540238, -13.288261)" y1="416.300026" x2="222.27" gradientUnits="userSpaceOnUse" y2="477.870069" id="0d6c848c92"><stop stop-opacity="1" stop-color="rgb(92.498779%, 10.998535%, 8.198547%)" offset="0"/><stop stop-opacity="1" stop-color="rgb(92.662048%, 10.998535%, 8.198547%)" offset="0.5"/><stop stop-opacity="1" stop-color="rgb(92.662048%, 10.998535%, 8.198547%)" offset="1"/></linearGradient><clipPath id="3177b43b36"><path d="M 64 64 L 73 64 L 73 73 L 64 73 Z M 64 64 " clip-rule="nonzero"/></clipPath><clipPath id="26d3e04f62"><path d="M 70.136719 64.757812 C 70.730469 65.105469 71.207031 65.582031 71.554688 66.191406 C 71.902344 66.796875 72.078125 67.472656 72.078125 68.21875 L 72.078125 71.414062 C 72.078125 71.625 72.007812 71.800781 71.871094 71.941406 C 71.730469 72.078125 71.558594 72.148438 71.347656 72.148438 C 71.136719 72.148438 70.960938 72.078125 70.824219 71.941406 C 70.683594 71.800781 70.617188 71.625 70.617188 71.414062 L 70.617188 70.886719 C 70.28125 71.296875 69.875 71.617188 69.398438 71.84375 C 68.917969 72.074219 68.402344 72.1875 67.847656 72.1875 C 67.160156 72.1875 66.535156 72.015625 65.980469 71.671875 C 65.417969 71.328125 64.980469 70.851562 64.660156 70.246094 C 64.339844 69.640625 64.179688 68.960938 64.179688 68.214844 C 64.179688 67.472656 64.351562 66.796875 64.695312 66.1875 C 65.039062 65.582031 65.515625 65.101562 66.121094 64.753906 C 66.726562 64.40625 67.398438 64.230469 68.136719 64.230469 C 68.871094 64.230469 69.535156 64.40625 70.136719 64.753906 Z M 69.433594 70.546875 C 69.820312 70.3125 70.121094 69.992188 70.34375 69.585938 C 70.5625 69.179688 70.671875 68.726562 70.671875 68.21875 C 70.671875 67.710938 70.5625 67.253906 70.34375 66.839844 C 70.121094 66.429688 69.820312 66.109375 69.433594 65.875 C 69.046875 65.640625 68.613281 65.523438 68.136719 65.523438 C 67.65625 65.523438 67.226562 65.640625 66.835938 65.875 C 66.449219 66.109375 66.144531 66.429688 65.921875 66.839844 C 65.695312 67.253906 65.585938 67.710938 65.585938 68.21875 C 65.585938 68.726562 65.695312 69.179688 65.921875 69.585938 C 66.144531 69.992188 66.449219 70.3125 66.835938 70.546875 C 67.226562 70.78125 67.65625 70.898438 68.136719 70.898438 C 68.613281 70.898438 69.042969 70.785156 69.433594 70.546875 Z M 69.433594 70.546875 " clip-rule="nonzero"/></clipPath><linearGradient x1="260.63" gradientTransform="matrix(0.17875, 0, 0, 0.17875, 21.540238, -13.288261)" y1="433.670017" x2="260.63" gradientUnits="userSpaceOnUse" y2="478.190039" id="0d799c14b1"><stop stop-opacity="1" stop-color="rgb(92.498779%, 10.998535%, 8.198547%)" offset="0"/><stop stop-opacity="1" stop-color="rgb(92.662048%, 10.998535%, 8.198547%)" offset="0.5"/><stop stop-opacity="1" stop-color="rgb(92.662048%, 10.998535%, 8.198547%)" offset="1"/></linearGradient><clipPath id="bbb86b65b4"><path d="M 74 60 L 83 60 L 83 73 L 74 73 Z M 74 60 " clip-rule="nonzero"/></clipPath><clipPath id="ef1bf8c346"><path d="M 80.210938 64.75 C 80.769531 65.09375 81.207031 65.570312 81.527344 66.175781 C 81.847656 66.78125 82.007812 67.460938 82.007812 68.207031 C 82.007812 68.949219 81.839844 69.625 81.492188 70.234375 C 81.148438 70.839844 80.675781 71.320312 80.066406 71.667969 C 79.460938 72.015625 78.789062 72.191406 78.054688 72.191406 C 77.320312 72.191406 76.652344 72.019531 76.054688 71.667969 C 75.457031 71.320312 74.984375 70.84375 74.632812 70.234375 C 74.285156 69.628906 74.109375 68.949219 74.109375 68.207031 L 74.109375 61.671875 C 74.109375 61.449219 74.179688 61.273438 74.316406 61.140625 C 74.457031 61.003906 74.628906 60.941406 74.839844 60.941406 C 75.050781 60.941406 75.238281 61.007812 75.371094 61.140625 C 75.507812 61.273438 75.574219 61.449219 75.574219 61.671875 L 75.574219 65.539062 C 75.90625 65.128906 76.3125 64.808594 76.792969 64.582031 C 77.269531 64.351562 77.785156 64.238281 78.339844 64.238281 C 79.027344 64.238281 79.652344 64.410156 80.210938 64.753906 Z M 79.351562 70.546875 C 79.738281 70.3125 80.042969 69.992188 80.265625 69.582031 C 80.492188 69.167969 80.601562 68.710938 80.601562 68.203125 C 80.601562 67.695312 80.488281 67.242188 80.265625 66.835938 C 80.042969 66.429688 79.734375 66.109375 79.351562 65.875 C 78.960938 65.640625 78.53125 65.523438 78.050781 65.523438 C 77.574219 65.523438 77.140625 65.640625 76.753906 65.875 C 76.367188 66.109375 76.0625 66.429688 75.84375 66.835938 C 75.625 67.242188 75.515625 67.695312 75.515625 68.203125 C 75.515625 68.710938 75.625 69.167969 75.84375 69.582031 C 76.0625 69.992188 76.367188 70.3125 76.753906 70.546875 C 77.140625 70.78125 77.574219 70.898438 78.050781 70.898438 C 78.53125 70.898438 78.960938 70.785156 79.351562 70.546875 Z M 79.351562 70.546875 " clip-rule="nonzero"/></clipPath><linearGradient x1="316.20001" gradientTransform="matrix(0.17875, 0, 0, 0.17875, 21.540238, -13.288261)" y1="415.260046" x2="316.20001" gradientUnits="userSpaceOnUse" y2="478.210029" id="f9363195d6"><stop stop-opacity="1" stop-color="rgb(92.498779%, 10.998535%, 8.198547%)" offset="0"/><stop stop-opacity="1" stop-color="rgb(92.662048%, 10.998535%, 8.198547%)" offset="0.5"/><stop stop-opacity="1" stop-color="rgb(92.662048%, 10.998535%, 8.198547%)" offset="1"/></linearGradient><clipPath id="8a47ff4c56"><path d="M 83 61 L 86 61 L 86 73 L 83 73 Z M 83 61 " clip-rule="nonzero"/></clipPath><clipPath id="063fde51a6"><path d="M 84.25 62.738281 C 84.066406 62.550781 83.972656 62.332031 83.972656 62.070312 C 83.972656 61.8125 84.066406 61.589844 84.25 61.402344 C 84.4375 61.21875 84.660156 61.125 84.917969 61.125 C 85.175781 61.125 85.398438 61.21875 85.585938 61.402344 C 85.769531 61.589844 85.863281 61.8125 85.863281 62.070312 C 85.863281 62.332031 85.769531 62.550781 85.585938 62.738281 C 85.398438 62.921875 85.175781 63.015625 84.917969 63.015625 C 84.660156 63.015625 84.4375 62.921875 84.25 62.738281 Z M 84.394531 71.921875 C 84.253906 71.785156 84.1875 71.609375 84.1875 71.398438 L 84.1875 65.023438 C 84.1875 64.800781 84.257812 64.625 84.394531 64.492188 C 84.53125 64.355469 84.707031 64.292969 84.917969 64.292969 C 85.128906 64.292969 85.316406 64.355469 85.449219 64.492188 C 85.582031 64.625 85.648438 64.800781 85.648438 65.023438 L 85.648438 71.398438 C 85.648438 71.609375 85.582031 71.785156 85.449219 71.921875 C 85.316406 72.0625 85.136719 72.132812 84.917969 72.132812 C 84.699219 72.132812 84.535156 72.0625 84.394531 71.921875 Z M 84.394531 71.921875 " clip-rule="nonzero"/></clipPath><linearGradient x1="354.56" gradientTransform="matrix(0.17875, 0, 0, 0.17875, 21.540238, -13.288261)" y1="416.300026" x2="354.56" gradientUnits="userSpaceOnUse" y2="477.870069" id="f6516d95b5"><stop stop-opacity="1" stop-color="rgb(92.498779%, 10.998535%, 8.198547%)" offset="0"/><stop stop-opacity="1" stop-color="rgb(92.662048%, 10.998535%, 8.198547%)" offset="0.5"/><stop stop-opacity="1" stop-color="rgb(92.662048%, 10.998535%, 8.198547%)" offset="1"/></linearGradient><clipPath id="351b586622"><path d="M 87 60 L 92 60 L 92 73 L 87 73 Z M 87 60 " clip-rule="nonzero"/></clipPath><clipPath id="1f96e9fee4"><path d="M 88.980469 71.796875 C 88.652344 71.570312 88.394531 71.253906 88.214844 70.847656 C 88.03125 70.445312 87.941406 69.988281 87.941406 69.480469 L 87.941406 61.65625 C 87.941406 61.445312 88.007812 61.273438 88.140625 61.136719 C 88.277344 61.003906 88.449219 60.9375 88.660156 60.9375 C 88.871094 60.9375 89.042969 61.003906 89.175781 61.136719 C 89.308594 61.273438 89.375 61.445312 89.375 61.65625 L 89.375 69.480469 C 89.375 69.835938 89.441406 70.125 89.574219 70.355469 C 89.710938 70.582031 89.882812 70.699219 90.09375 70.699219 L 90.449219 70.699219 C 90.640625 70.699219 90.796875 70.761719 90.917969 70.898438 C 91.035156 71.03125 91.09375 71.203125 91.09375 71.414062 C 91.09375 71.625 91.003906 71.796875 90.824219 71.929688 C 90.640625 72.066406 90.40625 72.132812 90.121094 72.132812 L 90.09375 72.132812 C 89.679688 72.132812 89.3125 72.019531 88.984375 71.796875 Z M 88.980469 71.796875 " clip-rule="nonzero"/></clipPath><linearGradient x1="380.29999" gradientTransform="matrix(0.17875, 0, 0, 0.17875, 21.540238, -13.288261)" y1="415.250006" x2="380.29999" gradientUnits="userSpaceOnUse" y2="477.870069" id="cc3b1bc48f"><stop stop-opacity="1" stop-color="rgb(92.498779%, 10.998535%, 8.198547%)" offset="0"/><stop stop-opacity="1" stop-color="rgb(92.662048%, 10.998535%, 8.198547%)" offset="0.5"/><stop stop-opacity="1" stop-color="rgb(92.662048%, 10.998535%, 8.198547%)" offset="1"/></linearGradient><clipPath id="9c98b6943d"><path d="M 92 61 L 95 61 L 95 73 L 92 73 Z M 92 61 " clip-rule="nonzero"/></clipPath><clipPath id="8ac2767f4d"><path d="M 92.589844 62.738281 C 92.40625 62.550781 92.3125 62.332031 92.3125 62.070312 C 92.3125 61.8125 92.40625 61.589844 92.589844 61.402344 C 92.777344 61.21875 93 61.125 93.257812 61.125 C 93.515625 61.125 93.738281 61.21875 93.925781 61.402344 C 94.109375 61.589844 94.203125 61.8125 94.203125 62.070312 C 94.203125 62.332031 94.109375 62.550781 93.925781 62.738281 C 93.738281 62.921875 93.515625 63.015625 93.257812 63.015625 C 93 63.015625 92.777344 62.921875 92.589844 62.738281 Z M 92.734375 71.921875 C 92.59375 71.785156 92.527344 71.609375 92.527344 71.398438 L 92.527344 65.023438 C 92.527344 64.800781 92.597656 64.625 92.734375 64.492188 C 92.871094 64.355469 93.046875 64.292969 93.257812 64.292969 C 93.46875 64.292969 93.65625 64.355469 93.789062 64.492188 C 93.921875 64.625 93.988281 64.800781 93.988281 65.023438 L 93.988281 71.398438 C 93.988281 71.609375 93.921875 71.785156 93.789062 71.921875 C 93.65625 72.0625 93.476562 72.132812 93.257812 72.132812 C 93.039062 72.132812 92.875 72.0625 92.734375 71.921875 Z M 92.734375 71.921875 " clip-rule="nonzero"/></clipPath><linearGradient x1="401.22" gradientTransform="matrix(0.17875, 0, 0, 0.17875, 21.540238, -13.288261)" y1="416.300026" x2="401.22" gradientUnits="userSpaceOnUse" y2="477.870069" id="44f7eb22a3"><stop stop-opacity="1" stop-color="rgb(92.498779%, 10.998535%, 8.198547%)" offset="0"/><stop stop-opacity="1" stop-color="rgb(92.662048%, 10.998535%, 8.198547%)" offset="0.5"/><stop stop-opacity="1" stop-color="rgb(92.662048%, 10.998535%, 8.198547%)" offset="1"/></linearGradient><clipPath id="bdcf678c54"><path d="M 96 64 L 103 64 L 103 73 L 96 73 Z M 96 64 " clip-rule="nonzero"/></clipPath><clipPath id="57af4186f9"><path d="M 102.445312 71.457031 C 102.445312 71.90625 102.21875 72.132812 101.769531 72.132812 L 96.882812 72.132812 C 96.433594 72.132812 96.210938 71.90625 96.210938 71.457031 C 96.210938 71.269531 96.253906 71.117188 96.339844 71 L 100.394531 65.640625 L 96.738281 65.640625 C 96.289062 65.640625 96.066406 65.414062 96.066406 64.964844 C 96.066406 64.515625 96.289062 64.292969 96.738281 64.292969 L 101.625 64.292969 C 102.074219 64.292969 102.300781 64.515625 102.300781 64.964844 C 102.300781 65.15625 102.257812 65.308594 102.171875 65.425781 L 98.128906 70.785156 L 101.769531 70.785156 C 102.21875 70.785156 102.445312 71.011719 102.445312 71.457031 Z M 102.445312 71.457031 " clip-rule="nonzero"/></clipPath><linearGradient x1="434.76999" gradientTransform="matrix(0.17875, 0, 0, 0.17875, 21.540238, -13.288261)" y1="434.010047" x2="434.76999" gradientUnits="userSpaceOnUse" y2="477.880009" id="6c1a366dfe"><stop stop-opacity="1" stop-color="rgb(92.498779%, 10.998535%, 8.198547%)" offset="0"/><stop stop-opacity="1" stop-color="rgb(92.662048%, 10.998535%, 8.198547%)" offset="0.5"/><stop stop-opacity="1" stop-color="rgb(92.662048%, 10.998535%, 8.198547%)" offset="1"/></linearGradient><clipPath id="7a6aab4430"><path d="M 103 64 L 111 64 L 111 73 L 103 73 Z M 103 64 " clip-rule="nonzero"/></clipPath><clipPath id="cbe2e66ca3"><path d="M 110.730469 68.542969 C 110.605469 68.660156 110.445312 68.71875 110.253906 68.71875 L 104.808594 68.71875 C 104.914062 69.390625 105.21875 69.929688 105.71875 70.339844 C 106.222656 70.75 106.835938 70.957031 107.558594 70.957031 C 107.847656 70.957031 108.144531 70.90625 108.457031 70.800781 C 108.765625 70.695312 109.023438 70.566406 109.222656 70.410156 C 109.355469 70.304688 109.515625 70.253906 109.695312 70.253906 C 109.878906 70.253906 110.019531 70.300781 110.125 70.398438 C 110.296875 70.539062 110.382812 70.703125 110.382812 70.886719 C 110.382812 71.058594 110.308594 71.199219 110.15625 71.316406 C 109.832031 71.574219 109.425781 71.785156 108.945312 71.945312 C 108.460938 72.109375 108 72.191406 107.5625 72.191406 C 106.777344 72.191406 106.078125 72.019531 105.453125 71.679688 C 104.835938 71.339844 104.347656 70.871094 104 70.269531 C 103.652344 69.667969 103.476562 68.984375 103.476562 68.21875 C 103.476562 67.453125 103.640625 66.769531 103.972656 66.160156 C 104.300781 65.554688 104.757812 65.082031 105.347656 64.742188 C 105.933594 64.402344 106.601562 64.230469 107.34375 64.230469 C 108.089844 64.230469 108.714844 64.394531 109.25 64.71875 C 109.785156 65.046875 110.195312 65.5 110.484375 66.082031 C 110.769531 66.664062 110.914062 67.332031 110.914062 68.085938 C 110.914062 68.269531 110.851562 68.421875 110.726562 68.539062 Z M 105.648438 66.039062 C 105.214844 66.421875 104.941406 66.933594 104.824219 67.574219 L 109.597656 67.574219 C 109.511719 66.933594 109.273438 66.421875 108.882812 66.039062 C 108.488281 65.660156 107.976562 65.46875 107.347656 65.46875 C 106.648438 65.46875 106.082031 65.660156 105.648438 66.039062 Z M 105.648438 66.039062 " clip-rule="nonzero"/></clipPath><linearGradient x1="479.19" gradientTransform="matrix(0.17875, 0, 0, 0.17875, 21.540238, -13.288261)" y1="433.679997" x2="479.19" gradientUnits="userSpaceOnUse" y2="478.200019" id="7c5d687987"><stop stop-opacity="1" stop-color="rgb(92.498779%, 10.998535%, 8.198547%)" offset="0"/><stop stop-opacity="1" stop-color="rgb(92.662048%, 10.998535%, 8.198547%)" offset="0.5"/><stop stop-opacity="1" stop-color="rgb(92.662048%, 10.998535%, 8.198547%)" offset="1"/></linearGradient><clipPath id="5b64f905e0"><path d="M 54 2 L 103 2 L 103 57 L 54 57 Z M 54 2 " clip-rule="nonzero"/></clipPath><clipPath id="b809944437"><path d="M 78.601562 2.21875 C 65.507812 2.21875 54.855469 12.871094 54.855469 25.964844 C 54.855469 31.707031 56.933594 37.246094 60.703125 41.566406 C 63.550781 44.832031 67.222656 47.234375 71.285156 48.546875 L 71.285156 45.679688 C 66.359375 45.449219 62.417969 41.363281 62.417969 36.386719 L 62.417969 26.222656 C 62.417969 21.09375 66.589844 16.921875 71.71875 16.921875 L 72.667969 16.921875 C 75.996094 16.921875 79.070312 18.726562 80.722656 21.578125 L 82.945312 16.863281 C 83.09375 16.546875 83.417969 16.34375 83.769531 16.34375 C 83.789062 16.34375 83.804688 16.34375 83.824219 16.34375 C 83.84375 16.34375 83.863281 16.34375 83.882812 16.34375 C 84.234375 16.34375 84.558594 16.546875 84.707031 16.863281 L 87.851562 23.539062 L 90.191406 18.574219 L 90.207031 18.550781 C 90.21875 18.527344 90.230469 18.503906 90.246094 18.484375 C 90.261719 18.460938 90.28125 18.433594 90.300781 18.410156 C 90.316406 18.390625 90.335938 18.367188 90.359375 18.347656 C 90.378906 18.324219 90.402344 18.304688 90.425781 18.285156 C 90.449219 18.269531 90.472656 18.253906 90.496094 18.234375 C 90.519531 18.21875 90.542969 18.207031 90.566406 18.191406 C 90.578125 18.183594 90.589844 18.175781 90.605469 18.171875 L 90.632812 18.15625 L 90.667969 18.144531 C 90.691406 18.136719 90.714844 18.128906 90.738281 18.121094 C 90.773438 18.109375 90.800781 18.101562 90.828125 18.097656 C 90.859375 18.089844 90.882812 18.085938 90.910156 18.085938 C 90.941406 18.082031 90.972656 18.078125 91.003906 18.078125 C 91.03125 18.078125 91.058594 18.078125 91.085938 18.082031 C 91.121094 18.085938 91.152344 18.089844 91.183594 18.097656 C 91.210938 18.101562 91.238281 18.109375 91.261719 18.117188 C 91.285156 18.121094 91.3125 18.132812 91.339844 18.144531 C 91.359375 18.148438 91.378906 18.15625 91.394531 18.164062 L 91.441406 18.1875 C 91.460938 18.199219 91.488281 18.214844 91.511719 18.230469 C 91.539062 18.25 91.5625 18.265625 91.582031 18.28125 C 91.601562 18.296875 91.625 18.320312 91.648438 18.34375 C 91.667969 18.363281 91.6875 18.386719 91.707031 18.410156 C 91.726562 18.429688 91.742188 18.453125 91.757812 18.476562 C 91.773438 18.5 91.789062 18.523438 91.800781 18.546875 C 91.8125 18.5625 91.820312 18.578125 91.828125 18.59375 L 93.484375 22.105469 L 96.453125 22.109375 L 98.109375 18.59375 C 98.257812 18.277344 98.578125 18.074219 98.929688 18.074219 C 99.0625 18.074219 99.195312 18.101562 99.316406 18.160156 C 99.539062 18.265625 99.703125 18.445312 99.785156 18.675781 C 99.867188 18.90625 99.855469 19.152344 99.753906 19.371094 L 97.851562 23.410156 C 97.703125 23.726562 97.378906 23.929688 97.03125 23.929688 C 97.003906 23.929688 96.980469 23.929688 96.953125 23.925781 C 96.929688 23.929688 96.90625 23.929688 96.878906 23.929688 L 92.90625 23.925781 C 92.832031 23.925781 92.757812 23.914062 92.683594 23.894531 C 92.65625 23.886719 92.636719 23.882812 92.617188 23.875 C 92.566406 23.859375 92.507812 23.832031 92.453125 23.800781 C 92.445312 23.796875 92.429688 23.789062 92.414062 23.777344 C 92.351562 23.738281 92.292969 23.691406 92.242188 23.632812 L 92.230469 23.621094 L 92.210938 23.597656 C 92.175781 23.558594 92.144531 23.511719 92.117188 23.460938 L 92.105469 23.449219 L 91.007812 21.117188 L 88.660156 26.09375 L 88.648438 26.109375 C 88.621094 26.160156 88.589844 26.207031 88.554688 26.25 L 88.539062 26.273438 L 88.511719 26.296875 C 88.476562 26.335938 88.421875 26.378906 88.359375 26.421875 C 88.347656 26.433594 88.324219 26.445312 88.300781 26.457031 C 88.289062 26.464844 88.269531 26.480469 88.242188 26.492188 C 88.214844 26.503906 88.183594 26.515625 88.15625 26.523438 C 88.132812 26.53125 88.109375 26.539062 88.085938 26.542969 C 88.003906 26.566406 87.929688 26.578125 87.855469 26.578125 C 87.785156 26.578125 87.710938 26.566406 87.628906 26.546875 C 87.601562 26.539062 87.582031 26.53125 87.558594 26.523438 C 87.527344 26.515625 87.496094 26.503906 87.464844 26.488281 C 87.445312 26.476562 87.421875 26.464844 87.402344 26.449219 C 87.390625 26.445312 87.371094 26.433594 87.347656 26.417969 C 87.296875 26.382812 87.246094 26.34375 87.207031 26.300781 L 87.175781 26.277344 L 87.15625 26.246094 C 87.125 26.203125 87.09375 26.160156 87.066406 26.113281 L 87.054688 26.101562 L 87.03125 26.054688 L 83.828125 19.253906 L 81.855469 23.441406 L 81.84375 23.460938 C 81.820312 23.503906 81.785156 23.550781 81.75 23.597656 C 81.738281 23.609375 81.726562 23.628906 81.710938 23.644531 C 81.6875 23.667969 81.660156 23.691406 81.632812 23.714844 C 81.859375 24.527344 81.976562 25.367188 81.976562 26.214844 L 81.976562 36.378906 C 81.976562 41.355469 78.035156 45.441406 73.109375 45.667969 L 73.109375 49.050781 C 73.648438 49.175781 74.1875 49.292969 74.738281 49.382812 L 74.738281 55.648438 C 74.738281 55.832031 74.839844 56 75 56.089844 C 75.078125 56.132812 75.160156 56.152344 75.242188 56.152344 C 75.339844 56.152344 75.433594 56.125 75.515625 56.074219 L 91.097656 46.152344 C 91.109375 46.144531 91.121094 46.136719 91.132812 46.128906 C 98.160156 41.757812 102.351562 34.21875 102.351562 25.953125 C 102.351562 12.859375 91.703125 2.210938 78.609375 2.210938 Z M 78.601562 2.21875 " clip-rule="nonzero"/></clipPath><linearGradient x1="292.497355" gradientTransform="matrix(0.17875, 0, 0, 0.17875, 21.540238, -13.288261)" y1="67.988386" x2="352.118072" gradientUnits="userSpaceOnUse" y2="406.109776" id="b037950002"><stop stop-opacity="1" stop-color="rgb(92.498779%, 10.998535%, 8.198547%)" offset="0"/><stop stop-opacity="1" stop-color="rgb(92.658997%, 10.998535%, 8.198547%)" offset="0.134394"/><stop stop-opacity="1" stop-color="rgb(92.82074%, 10.998535%, 8.198547%)" offset="0.5"/><stop stop-opacity="1" stop-color="rgb(92.658997%, 10.998535%, 8.198547%)" offset="0.865606"/><stop stop-opacity="1" stop-color="rgb(92.498779%, 10.998535%, 8.198547%)" offset="1"/></linearGradient><clipPath id="a493efd4be"><path d="M 64 18 L 81 18 L 81 44 L 64 44 Z M 64 18 " clip-rule="nonzero"/></clipPath><clipPath id="e52c597b16"><path d="M 80.152344 36.390625 L 80.152344 35.421875 L 66.410156 35.421875 C 65.90625 35.421875 65.5 35.011719 65.5 34.511719 C 65.5 34.007812 65.90625 33.601562 66.410156 33.601562 L 80.152344 33.601562 L 80.152344 31.710938 L 66.410156 31.710938 C 65.90625 31.710938 65.5 31.300781 65.5 30.800781 C 65.5 30.296875 65.90625 29.890625 66.410156 29.890625 L 80.152344 29.890625 L 80.152344 28 L 66.410156 28 C 65.90625 28 65.5 27.59375 65.5 27.089844 C 65.5 26.585938 65.90625 26.179688 66.410156 26.179688 L 80.152344 26.179688 C 80.148438 25.414062 80.027344 24.660156 79.792969 23.933594 L 74.472656 23.933594 C 74.230469 23.933594 74 23.839844 73.828125 23.667969 C 73.660156 23.496094 73.5625 23.265625 73.5625 23.023438 C 73.5625 22.523438 73.972656 22.113281 74.472656 22.113281 L 78.917969 22.113281 C 77.539062 20.015625 75.203125 18.738281 72.667969 18.738281 L 71.71875 18.738281 C 67.589844 18.738281 64.234375 22.097656 64.234375 26.222656 L 64.234375 36.386719 C 64.234375 40.515625 67.589844 43.867188 71.71875 43.867188 L 72.667969 43.867188 C 76.792969 43.867188 80.152344 40.511719 80.152344 36.386719 Z M 73.449219 39.128906 L 66.375 39.128906 C 65.871094 39.128906 65.464844 38.722656 65.464844 38.21875 C 65.464844 37.71875 65.871094 37.308594 66.375 37.308594 L 73.449219 37.308594 C 73.949219 37.308594 74.355469 37.71875 74.355469 38.21875 C 74.355469 38.722656 73.949219 39.128906 73.449219 39.128906 Z M 73.449219 39.128906 " clip-rule="nonzero"/></clipPath><linearGradient x1="270.016146" gradientTransform="matrix(0.17875, 0, 0, 0.17875, 21.540238, -13.288261)" y1="173.68529" x2="296.738147" gradientUnits="userSpaceOnUse" y2="325.252269" id="7d198e0940"><stop stop-opacity="1" stop-color="rgb(92.498779%, 10.998535%, 8.198547%)" offset="0"/><stop stop-opacity="1" stop-color="rgb(92.662048%, 10.998535%, 8.198547%)" offset="0.10045"/><stop stop-opacity="1" stop-color="rgb(92.826843%, 10.998535%, 8.198547%)" offset="0.5"/><stop stop-opacity="1" stop-color="rgb(92.662048%, 10.998535%, 8.198547%)" offset="0.89955"/><stop stop-opacity="1" stop-color="rgb(92.498779%, 10.998535%, 8.198547%)" offset="1"/></linearGradient></defs><g clip-path="url(#7f60a236b6)"><g clip-path="url(#5d7d431d0e)"><path fill="url(#4b015b7e6f)" d="M 43.183594 47.535156 L 43.183594 58.726562 L 52.214844 58.726562 L 52.214844 47.535156 Z M 43.183594 47.535156 " fill-rule="nonzero"/></g></g><g clip-path="url(#82f3bd7801)"><g clip-path="url(#69484cb0c4)"><path fill="url(#8e4942b95b)" d="M 53.960938 47.894531 L 53.960938 58.785156 L 61.859375 58.785156 L 61.859375 47.894531 Z M 53.960938 47.894531 " fill-rule="nonzero"/></g></g><g clip-path="url(#fdd73e7a48)"><g clip-path="url(#c862841e75)"><path fill="url(#d836839bf5)" d="M 63.0625 50.828125 L 63.0625 58.785156 L 70.960938 58.785156 L 70.960938 50.828125 Z M 63.0625 50.828125 " fill-rule="nonzero"/></g></g><g clip-path="url(#0fd1e39354)"><g clip-path="url(#566c69b5ec)"><path fill="url(#1dd14b4757)" d="M 39.414062 60.9375 L 39.414062 72.132812 L 40.90625 72.132812 L 40.90625 60.9375 Z M 39.414062 60.9375 " fill-rule="nonzero"/></g></g><g clip-path="url(#dcb2d531cf)"><g clip-path="url(#5cfdbf9ab6)"><path fill="url(#141bffce1d)" d="M 43.390625 64.253906 L 43.390625 72.179688 L 50.742188 72.179688 L 50.742188 64.253906 Z M 43.390625 64.253906 " fill-rule="nonzero"/></g></g><g clip-path="url(#8c01c9edba)"><g clip-path="url(#d270fa8052)"><path fill="url(#d0f374042b)" d="M 51.554688 64.320312 L 51.554688 72.117188 L 59.105469 72.117188 L 59.105469 64.320312 Z M 51.554688 64.320312 " fill-rule="nonzero"/></g></g><g clip-path="url(#e8e633e8ff)"><g clip-path="url(#85b11fdca4)"><path fill="url(#0d6c848c92)" d="M 60.324219 61.125 L 60.324219 72.132812 L 62.214844 72.132812 L 62.214844 61.125 Z M 60.324219 61.125 " fill-rule="nonzero"/></g></g><g clip-path="url(#3177b43b36)"><g clip-path="url(#26d3e04f62)"><path fill="url(#0d799c14b1)" d="M 64.179688 64.230469 L 64.179688 72.1875 L 72.078125 72.1875 L 72.078125 64.230469 Z M 64.179688 64.230469 " fill-rule="nonzero"/></g></g><g clip-path="url(#bbb86b65b4)"><g clip-path="url(#ef1bf8c346)"><path fill="url(#f9363195d6)" d="M 74.109375 60.941406 L 74.109375 72.191406 L 82.007812 72.191406 L 82.007812 60.941406 Z M 74.109375 60.941406 " fill-rule="nonzero"/></g></g><g clip-path="url(#8a47ff4c56)"><g clip-path="url(#063fde51a6)"><path fill="url(#f6516d95b5)" d="M 83.972656 61.125 L 83.972656 72.132812 L 85.863281 72.132812 L 85.863281 61.125 Z M 83.972656 61.125 " fill-rule="nonzero"/></g></g><g clip-path="url(#351b586622)"><g clip-path="url(#1f96e9fee4)"><path fill="url(#cc3b1bc48f)" d="M 87.941406 60.9375 L 87.941406 72.132812 L 91.09375 72.132812 L 91.09375 60.9375 Z M 87.941406 60.9375 " fill-rule="nonzero"/></g></g><g clip-path="url(#9c98b6943d)"><g clip-path="url(#8ac2767f4d)"><path fill="url(#44f7eb22a3)" d="M 92.3125 61.125 L 92.3125 72.132812 L 94.203125 72.132812 L 94.203125 61.125 Z M 92.3125 61.125 " fill-rule="nonzero"/></g></g><g clip-path="url(#bdcf678c54)"><g clip-path="url(#57af4186f9)"><path fill="url(#6c1a366dfe)" d="M 96.066406 64.292969 L 96.066406 72.132812 L 102.445312 72.132812 L 102.445312 64.292969 Z M 96.066406 64.292969 " fill-rule="nonzero"/></g></g><g clip-path="url(#7a6aab4430)"><g clip-path="url(#cbe2e66ca3)"><path fill="url(#7c5d687987)" d="M 103.476562 64.230469 L 103.476562 72.191406 L 110.914062 72.191406 L 110.914062 64.230469 Z M 103.476562 64.230469 " fill-rule="nonzero"/></g></g><g clip-path="url(#5b64f905e0)"><g clip-path="url(#b809944437)"><path fill="url(#b037950002)" d="M 54.855469 2.210938 L 54.855469 56.152344 L 102.351562 56.152344 L 102.351562 2.210938 Z M 54.855469 2.210938 " fill-rule="nonzero"/></g></g><g clip-path="url(#a493efd4be)"><g clip-path="url(#e52c597b16)"><path fill="url(#7d198e0940)" d="M 64.234375 18.738281 L 64.234375 43.867188 L 80.152344 43.867188 L 80.152344 18.738281 Z M 64.234375 18.738281 " fill-rule="nonzero"/></g></g></svg>