<svg xmlns="http://www.w3.org/2000/svg" xmlns:xlink="http://www.w3.org/1999/xlink" width="1400" zoomAndPan="magnify" viewBox="0 0 1050 225" height="300" preserveAspectRatio="xMidYMid meet" version="1.0"><defs><clipPath id="8207fa16cf"><path d="M 449.855469 152.050781 L 466.355469 152.050781 L 466.355469 168.550781 L 449.855469 168.550781 Z M 449.855469 152.050781 " clip-rule="nonzero"/></clipPath></defs><rect x="-105" width="1260" fill="#ffffff" y="-22.5" height="270" fill-opacity="1"/><rect x="-105" width="1260" fill="#ffffff" y="-22.5" height="270" fill-opacity="1"/><rect x="-105" width="1260" fill="#ffffff" y="-22.5" height="270" fill-opacity="1"/><g clip-path="url(#8207fa16cf)"><path fill="#ffffff" d="M 458.121094 152.050781 C 460.554688 152.054688 462.742188 153.113281 464.25 154.796875 C 464.25 154.796875 464.253906 154.800781 464.253906 154.800781 C 465.363281 156.039062 466.105469 157.613281 466.304688 159.351562 L 466.304688 159.382812 L 466.308594 159.398438 L 466.308594 159.40625 C 466.3125 159.433594 466.316406 159.464844 466.316406 159.496094 L 466.316406 159.503906 L 466.320312 159.515625 L 466.320312 159.542969 L 466.324219 159.554688 L 466.324219 159.585938 C 466.328125 159.605469 466.328125 159.621094 466.332031 159.640625 L 466.332031 159.675781 L 466.335938 159.6875 L 466.335938 159.722656 L 466.339844 159.734375 L 466.339844 159.769531 C 466.339844 159.785156 466.34375 159.796875 466.34375 159.808594 L 466.34375 159.863281 L 466.347656 159.875 L 466.347656 159.941406 C 466.347656 159.949219 466.351562 159.960938 466.351562 159.96875 L 466.351562 160.0625 L 466.355469 160.074219 L 466.355469 160.289062 C 466.355469 160.292969 466.355469 160.296875 466.355469 160.300781 L 466.355469 160.527344 L 466.351562 160.539062 L 466.351562 160.632812 C 466.351562 160.640625 466.347656 160.648438 466.347656 160.65625 L 466.347656 160.722656 L 466.34375 160.738281 L 466.34375 160.789062 C 466.34375 160.804688 466.339844 160.816406 466.339844 160.828125 L 466.339844 160.867188 L 466.335938 160.875 L 466.335938 160.914062 L 466.332031 160.925781 L 466.332031 160.960938 C 466.328125 160.976562 466.328125 160.996094 466.324219 161.011719 L 466.324219 161.046875 L 466.320312 161.058594 L 466.320312 161.082031 L 466.316406 161.09375 L 466.316406 161.105469 C 466.316406 161.132812 466.3125 161.164062 466.308594 161.195312 L 466.308594 161.203125 L 466.304688 161.214844 L 466.304688 161.246094 C 466.105469 162.984375 465.363281 164.5625 464.253906 165.800781 C 464.253906 165.800781 464.25 165.800781 464.25 165.804688 C 462.738281 167.488281 460.546875 168.550781 458.105469 168.550781 C 455.667969 168.550781 453.472656 167.488281 451.960938 165.804688 C 451.960938 165.800781 451.960938 165.800781 451.960938 165.800781 C 450.851562 164.5625 450.109375 162.984375 449.910156 161.246094 L 449.910156 161.226562 L 449.90625 161.214844 L 449.90625 161.195312 C 449.902344 161.164062 449.898438 161.132812 449.894531 161.105469 L 449.894531 161.070312 L 449.890625 161.058594 L 449.890625 161.046875 L 449.886719 161.035156 L 449.886719 161.011719 C 449.886719 160.996094 449.882812 160.976562 449.882812 160.960938 L 449.882812 160.945312 L 449.878906 160.933594 L 449.878906 160.890625 L 449.875 160.875 L 449.875 160.828125 C 449.871094 160.816406 449.871094 160.804688 449.871094 160.789062 L 449.871094 160.765625 L 449.867188 160.75 L 449.867188 160.683594 L 449.863281 160.667969 L 449.863281 160.65625 C 449.863281 160.648438 449.863281 160.640625 449.863281 160.632812 L 449.863281 160.578125 L 449.859375 160.566406 L 449.859375 160.40625 L 449.855469 160.394531 L 449.855469 160.3125 C 449.855469 160.308594 449.855469 160.304688 449.855469 160.300781 L 449.855469 160.207031 L 449.859375 160.195312 L 449.859375 160.035156 L 449.863281 160.019531 L 449.863281 159.96875 C 449.863281 159.960938 449.863281 159.949219 449.863281 159.941406 L 449.863281 159.929688 L 449.867188 159.914062 L 449.867188 159.84375 L 449.871094 159.832031 L 449.871094 159.808594 C 449.871094 159.796875 449.871094 159.785156 449.875 159.769531 L 449.875 159.722656 L 449.878906 159.710938 L 449.878906 159.664062 L 449.882812 159.648438 L 449.882812 159.640625 C 449.882812 159.621094 449.886719 159.605469 449.886719 159.585938 L 449.886719 159.566406 L 449.890625 159.554688 L 449.890625 159.542969 L 449.894531 159.527344 L 449.894531 159.496094 C 449.898438 159.464844 449.902344 159.4375 449.90625 159.40625 L 449.90625 159.382812 L 449.910156 159.371094 L 449.910156 159.351562 C 450.109375 157.613281 450.851562 156.039062 451.960938 154.800781 C 451.960938 154.800781 451.960938 154.796875 451.960938 154.796875 C 453.472656 153.113281 455.660156 152.054688 458.09375 152.050781 Z M 458.371094 164.558594 L 458.371094 167.996094 C 459.070312 167.894531 459.707031 167.378906 460.242188 166.59375 C 460.574219 166.109375 460.863281 165.519531 461.101562 164.855469 C 460.257812 164.679688 459.335938 164.578125 458.371094 164.558594 Z M 457.839844 164.558594 C 456.875 164.578125 455.953125 164.679688 455.109375 164.855469 C 455.347656 165.519531 455.636719 166.109375 455.96875 166.59375 C 456.503906 167.378906 457.140625 167.894531 457.839844 167.996094 Z M 454.589844 164.972656 C 453.847656 165.160156 453.171875 165.40625 452.589844 165.695312 C 453.59375 166.722656 454.882812 167.46875 456.328125 167.8125 C 456.042969 167.5625 455.777344 167.253906 455.527344 166.894531 C 455.167969 166.359375 454.847656 165.710938 454.589844 164.972656 Z M 461.625 164.972656 C 461.367188 165.710938 461.046875 166.359375 460.683594 166.894531 C 460.4375 167.253906 460.167969 167.5625 459.886719 167.8125 C 461.332031 167.46875 462.617188 166.722656 463.625 165.695312 C 463.039062 165.40625 462.367188 165.160156 461.625 164.972656 Z M 453.851562 160.566406 L 450.394531 160.566406 L 450.394531 160.632812 L 450.398438 160.644531 L 450.398438 160.710938 L 450.402344 160.722656 L 450.402344 160.785156 L 450.40625 160.796875 L 450.40625 160.84375 L 450.410156 160.855469 L 450.410156 160.894531 L 450.414062 160.90625 L 450.414062 160.953125 L 450.417969 160.964844 L 450.417969 160.996094 L 450.421875 161.007812 L 450.421875 161.039062 L 450.425781 161.050781 L 450.425781 161.074219 L 450.429688 161.082031 L 450.429688 161.113281 C 450.429688 161.117188 450.433594 161.121094 450.433594 161.125 L 450.433594 161.148438 L 450.4375 161.160156 L 450.4375 161.179688 L 450.441406 161.191406 L 450.441406 161.203125 C 450.441406 161.214844 450.445312 161.226562 450.445312 161.242188 L 450.449219 161.253906 L 450.449219 161.277344 L 450.453125 161.289062 L 450.453125 161.296875 C 450.457031 161.316406 450.457031 161.332031 450.460938 161.351562 L 450.460938 161.363281 L 450.464844 161.375 L 450.464844 161.394531 C 450.46875 161.414062 450.472656 161.4375 450.476562 161.457031 L 450.476562 161.480469 C 450.699219 162.917969 451.320312 164.226562 452.21875 165.289062 C 452.851562 164.957031 453.597656 164.679688 454.425781 164.46875 C 454.082031 163.320312 453.875 161.988281 453.851562 160.566406 Z M 465.816406 160.609375 L 465.820312 160.597656 L 465.820312 160.566406 L 462.363281 160.566406 C 462.339844 161.988281 462.132812 163.320312 461.789062 164.46875 C 462.613281 164.679688 463.359375 164.957031 463.996094 165.289062 C 464.894531 164.226562 465.511719 162.917969 465.734375 161.480469 L 465.738281 161.46875 L 465.738281 161.457031 C 465.742188 161.4375 465.746094 161.414062 465.746094 161.394531 L 465.75 161.382812 L 465.75 161.371094 L 465.753906 161.359375 L 465.753906 161.351562 C 465.757812 161.332031 465.757812 161.316406 465.761719 161.296875 L 465.761719 161.273438 L 465.765625 161.261719 L 465.765625 161.242188 C 465.769531 161.226562 465.769531 161.214844 465.773438 161.203125 L 465.773438 161.175781 L 465.777344 161.164062 L 465.777344 161.132812 L 465.78125 161.125 C 465.78125 161.121094 465.78125 161.117188 465.78125 161.113281 L 465.78125 161.101562 L 465.785156 161.089844 L 465.785156 161.078125 L 465.789062 161.066406 L 465.789062 161.035156 L 465.792969 161.027344 L 465.792969 160.992188 L 465.796875 160.980469 L 465.796875 160.941406 L 465.800781 160.929688 L 465.800781 160.894531 L 465.804688 160.882812 L 465.804688 160.84375 L 465.808594 160.832031 L 465.808594 160.773438 L 465.8125 160.761719 L 465.8125 160.699219 L 465.816406 160.6875 Z M 457.839844 164.027344 L 457.839844 160.566406 L 454.382812 160.566406 C 454.40625 161.945312 454.605469 163.238281 454.941406 164.347656 C 455.839844 164.15625 456.816406 164.042969 457.839844 164.027344 Z M 461.828125 160.566406 L 458.371094 160.566406 L 458.371094 164.027344 C 459.398438 164.042969 460.375 164.15625 461.269531 164.347656 C 461.605469 163.238281 461.808594 161.945312 461.828125 160.566406 Z M 465.734375 159.121094 C 465.511719 157.683594 464.894531 156.375 463.996094 155.3125 C 463.359375 155.644531 462.613281 155.921875 461.789062 156.132812 C 462.132812 157.28125 462.339844 158.613281 462.363281 160.035156 L 465.820312 160.035156 L 465.820312 160 L 465.816406 159.988281 L 465.816406 159.914062 L 465.8125 159.902344 L 465.8125 159.84375 L 465.808594 159.832031 L 465.808594 159.769531 L 465.804688 159.757812 L 465.804688 159.722656 L 465.800781 159.710938 L 465.800781 159.671875 L 465.796875 159.660156 L 465.796875 159.625 L 465.792969 159.613281 L 465.792969 159.574219 L 465.789062 159.5625 L 465.789062 159.539062 L 465.785156 159.527344 L 465.785156 159.503906 L 465.78125 159.496094 L 465.78125 159.488281 C 465.78125 159.484375 465.78125 159.480469 465.78125 159.476562 L 465.777344 159.464844 L 465.777344 159.441406 L 465.773438 159.429688 L 465.773438 159.398438 C 465.769531 159.386719 465.769531 159.371094 465.765625 159.359375 L 465.765625 159.335938 L 465.761719 159.324219 L 465.761719 159.300781 C 465.757812 159.285156 465.757812 159.269531 465.753906 159.25 L 465.75 159.238281 L 465.75 159.214844 L 465.746094 159.207031 C 465.746094 159.183594 465.742188 159.164062 465.738281 159.140625 L 465.738281 159.132812 Z M 461.269531 156.253906 C 460.375 156.445312 459.398438 156.554688 458.371094 156.570312 L 458.371094 160.035156 L 461.828125 160.035156 C 461.808594 158.652344 461.605469 157.363281 461.269531 156.253906 Z M 454.425781 156.132812 C 453.597656 155.921875 452.851562 155.644531 452.21875 155.3125 C 451.320312 156.375 450.699219 157.683594 450.476562 159.121094 L 450.476562 159.140625 C 450.472656 159.164062 450.46875 159.183594 450.464844 159.207031 L 450.464844 159.230469 L 450.460938 159.238281 L 450.460938 159.25 C 450.457031 159.269531 450.457031 159.285156 450.453125 159.300781 L 450.453125 159.316406 L 450.449219 159.324219 L 450.449219 159.347656 L 450.445312 159.359375 C 450.445312 159.371094 450.441406 159.386719 450.441406 159.398438 L 450.441406 159.410156 L 450.4375 159.421875 L 450.4375 159.433594 L 450.433594 159.445312 L 450.433594 159.476562 C 450.433594 159.480469 450.429688 159.484375 450.429688 159.488281 L 450.429688 159.507812 L 450.425781 159.519531 L 450.425781 159.554688 L 450.421875 159.566406 L 450.421875 159.59375 L 450.417969 159.605469 L 450.417969 159.640625 L 450.414062 159.652344 L 450.414062 159.695312 L 450.410156 159.703125 L 450.410156 159.738281 L 450.40625 159.75 L 450.40625 159.804688 L 450.402344 159.816406 L 450.402344 159.878906 L 450.398438 159.890625 L 450.398438 159.960938 L 450.394531 159.964844 L 450.394531 160.035156 L 453.851562 160.035156 C 453.875 158.613281 454.082031 157.28125 454.425781 156.132812 Z M 454.941406 156.253906 C 454.605469 157.363281 454.40625 158.652344 454.382812 160.035156 L 457.839844 160.035156 L 457.839844 156.570312 C 456.816406 156.554688 455.839844 156.445312 454.941406 156.253906 Z M 458.371094 152.601562 L 458.371094 156.039062 C 459.335938 156.023438 460.257812 155.921875 461.101562 155.746094 C 460.863281 155.078125 460.574219 154.492188 460.242188 154.007812 C 459.707031 153.222656 459.070312 152.707031 458.371094 152.601562 Z M 457.839844 152.601562 C 457.140625 152.707031 456.503906 153.222656 455.96875 154.007812 C 455.636719 154.492188 455.347656 155.078125 455.109375 155.746094 C 455.953125 155.921875 456.875 156.023438 457.839844 156.039062 Z M 456.328125 152.789062 C 454.882812 153.128906 453.59375 153.878906 452.589844 154.90625 C 453.171875 155.195312 453.847656 155.441406 454.589844 155.625 C 454.847656 154.890625 455.167969 154.238281 455.527344 153.707031 C 455.777344 153.347656 456.042969 153.039062 456.328125 152.789062 Z M 459.886719 152.789062 C 460.167969 153.039062 460.4375 153.347656 460.683594 153.707031 C 461.046875 154.238281 461.367188 154.890625 461.625 155.625 C 462.367188 155.441406 463.039062 155.195312 463.625 154.90625 C 462.617188 153.878906 461.332031 153.128906 459.886719 152.789062 Z M 459.886719 152.789062 " fill-opacity="1" fill-rule="evenodd"/></g></svg>